<svg id="Layer_1" data-name="Layer 1" xmlns="http://www.w3.org/2000/svg" viewBox="0 0 512 512"><defs><style>.cls-1{fill:#6d4135;}</style></defs><title>location-pin-outline</title><path class="cls-1" d="M256,512a21.34,21.34,0,0,1-11.83-3.58c-8.23-5.49-201.5-136.16-201.5-295.08C42.67,95.7,138.37,0,256,0S469.33,95.7,469.33,213.33c0,158.93-193.27,289.59-201.5,295.08A21.34,21.34,0,0,1,256,512Zm0-469.33c-94.1,0-170.67,76.56-170.67,170.67,0,115.48,130.2,221.08,170.67,251.1,40.47-30,170.67-135.62,170.67-251.1C426.67,119.23,350.1,42.67,256,42.67Z"/><path class="cls-1" d="M256,320A106.67,106.67,0,1,1,362.67,213.33,106.79,106.79,0,0,1,256,320Zm0-170.67a64,64,0,1,0,64,64A64.07,64.07,0,0,0,256,149.33Z"/></svg>